<mxfile host="65bd71144e" pages="1">
    <diagram id="uxhV2icgiiYaKgdVN0NL" name="Page-1">
        <mxGraphModel dx="407" dy="771" grid="1" gridSize="10" guides="1" tooltips="1" connect="1" arrows="1" fold="1" page="1" pageScale="1" pageWidth="850" pageHeight="1100" math="0" shadow="0">
            <root>
                <mxCell id="0"/>
                <mxCell id="1" parent="0"/>
                <mxCell id="gxBDuYYF857rBJJsu3Cr-38" value="" style="group" parent="1" vertex="1" connectable="0">
                    <mxGeometry x="900" y="250.5" width="380" height="293" as="geometry"/>
                </mxCell>
                <mxCell id="gxBDuYYF857rBJJsu3Cr-26" value="Rounded Function (A, ir)&lt;br&gt;&lt;br&gt;&lt;br&gt;&lt;br&gt;&lt;br&gt;&lt;br&gt;&lt;br&gt;&lt;br&gt;&lt;br&gt;&lt;br&gt;&lt;br&gt;&lt;br&gt;&lt;br&gt;&lt;br&gt;&lt;br&gt;&lt;br&gt;&lt;br&gt;" style="rounded=1;whiteSpace=wrap;html=1;" parent="gxBDuYYF857rBJJsu3Cr-38" vertex="1">
                    <mxGeometry width="380" height="293" as="geometry"/>
                </mxCell>
                <mxCell id="gxBDuYYF857rBJJsu3Cr-28" value="theta" style="rounded=1;whiteSpace=wrap;html=1;" parent="gxBDuYYF857rBJJsu3Cr-38" vertex="1">
                    <mxGeometry x="170" y="60" width="60" height="30" as="geometry"/>
                </mxCell>
                <mxCell id="gxBDuYYF857rBJJsu3Cr-29" value="Rho" style="rounded=1;whiteSpace=wrap;html=1;" parent="gxBDuYYF857rBJJsu3Cr-38" vertex="1">
                    <mxGeometry x="175" y="116" width="50" height="26" as="geometry"/>
                </mxCell>
                <mxCell id="gxBDuYYF857rBJJsu3Cr-34" style="edgeStyle=orthogonalEdgeStyle;rounded=0;orthogonalLoop=1;jettySize=auto;html=1;exitX=0.5;exitY=1;exitDx=0;exitDy=0;entryX=0.5;entryY=0;entryDx=0;entryDy=0;" parent="gxBDuYYF857rBJJsu3Cr-38" source="gxBDuYYF857rBJJsu3Cr-28" target="gxBDuYYF857rBJJsu3Cr-29" edge="1">
                    <mxGeometry relative="1" as="geometry"/>
                </mxCell>
                <mxCell id="gxBDuYYF857rBJJsu3Cr-30" value="pi" style="rounded=1;whiteSpace=wrap;html=1;" parent="gxBDuYYF857rBJJsu3Cr-38" vertex="1">
                    <mxGeometry x="185" y="168" width="30" height="20" as="geometry"/>
                </mxCell>
                <mxCell id="gxBDuYYF857rBJJsu3Cr-35" style="edgeStyle=orthogonalEdgeStyle;rounded=0;orthogonalLoop=1;jettySize=auto;html=1;exitX=0.5;exitY=1;exitDx=0;exitDy=0;entryX=0.5;entryY=0;entryDx=0;entryDy=0;" parent="gxBDuYYF857rBJJsu3Cr-38" source="gxBDuYYF857rBJJsu3Cr-29" target="gxBDuYYF857rBJJsu3Cr-30" edge="1">
                    <mxGeometry relative="1" as="geometry"/>
                </mxCell>
                <mxCell id="gxBDuYYF857rBJJsu3Cr-31" value="Chi" style="rounded=1;whiteSpace=wrap;html=1;" parent="gxBDuYYF857rBJJsu3Cr-38" vertex="1">
                    <mxGeometry x="180" y="205" width="40" height="20" as="geometry"/>
                </mxCell>
                <mxCell id="gxBDuYYF857rBJJsu3Cr-36" style="edgeStyle=orthogonalEdgeStyle;rounded=0;orthogonalLoop=1;jettySize=auto;html=1;exitX=0.5;exitY=1;exitDx=0;exitDy=0;entryX=0.5;entryY=0;entryDx=0;entryDy=0;" parent="gxBDuYYF857rBJJsu3Cr-38" source="gxBDuYYF857rBJJsu3Cr-30" target="gxBDuYYF857rBJJsu3Cr-31" edge="1">
                    <mxGeometry relative="1" as="geometry"/>
                </mxCell>
                <mxCell id="gxBDuYYF857rBJJsu3Cr-32" value="iota" style="rounded=1;whiteSpace=wrap;html=1;" parent="gxBDuYYF857rBJJsu3Cr-38" vertex="1">
                    <mxGeometry x="175" y="242" width="50" height="23" as="geometry"/>
                </mxCell>
                <mxCell id="gxBDuYYF857rBJJsu3Cr-37" style="edgeStyle=orthogonalEdgeStyle;rounded=0;orthogonalLoop=1;jettySize=auto;html=1;exitX=0.5;exitY=1;exitDx=0;exitDy=0;entryX=0.5;entryY=0;entryDx=0;entryDy=0;" parent="gxBDuYYF857rBJJsu3Cr-38" source="gxBDuYYF857rBJJsu3Cr-31" target="gxBDuYYF857rBJJsu3Cr-32" edge="1">
                    <mxGeometry relative="1" as="geometry"/>
                </mxCell>
                <mxCell id="gxBDuYYF857rBJJsu3Cr-52" value="" style="shape=flexArrow;endArrow=classic;html=1;entryX=0.5;entryY=0;entryDx=0;entryDy=0;exitX=0.5;exitY=1;exitDx=0;exitDy=0;" parent="1" source="gxBDuYYF857rBJJsu3Cr-56" target="gxBDuYYF857rBJJsu3Cr-55" edge="1">
                    <mxGeometry width="50" height="50" relative="1" as="geometry">
                        <mxPoint x="478.83333333333326" y="-60" as="sourcePoint"/>
                        <mxPoint x="600" y="50" as="targetPoint"/>
                    </mxGeometry>
                </mxCell>
                <mxCell id="gxBDuYYF857rBJJsu3Cr-56" value="Message and its length&lt;br&gt;(SHA-3 strings)" style="text;strokeColor=none;fillColor=none;html=1;fontSize=24;fontStyle=1;verticalAlign=middle;align=center;" parent="1" vertex="1">
                    <mxGeometry x="295" y="70" width="280" height="70" as="geometry"/>
                </mxCell>
                <mxCell id="gxBDuYYF857rBJJsu3Cr-58" value="" style="group" parent="1" vertex="1" connectable="0">
                    <mxGeometry x="60" y="210" width="750" height="780" as="geometry"/>
                </mxCell>
                <mxCell id="gxBDuYYF857rBJJsu3Cr-55" value="SPONGE CONSTRUCTION (S, d)&lt;br&gt;&lt;br&gt;&lt;br&gt;&lt;br&gt;&lt;br&gt;&lt;br&gt;&lt;br&gt;&lt;br&gt;&lt;br&gt;&lt;br&gt;&lt;br&gt;&lt;br&gt;&lt;br&gt;&lt;br&gt;&lt;br&gt;&lt;br&gt;&lt;br&gt;&lt;br&gt;&lt;br&gt;&lt;br&gt;&lt;br&gt;&lt;br&gt;&lt;br&gt;&lt;br&gt;&lt;br&gt;&lt;br&gt;&lt;br&gt;&lt;br&gt;&lt;br&gt;&lt;br&gt;&lt;br&gt;&lt;br&gt;&lt;br&gt;&lt;br&gt;&lt;br&gt;&lt;br&gt;&lt;br&gt;&lt;br&gt;&lt;br&gt;&lt;br&gt;&lt;br&gt;&lt;br&gt;&lt;br&gt;&lt;br&gt;&lt;br&gt;&lt;br&gt;&lt;br&gt;&lt;br&gt;&lt;br&gt;&lt;br&gt;" style="rounded=0;whiteSpace=wrap;html=1;" parent="gxBDuYYF857rBJJsu3Cr-58" vertex="1">
                    <mxGeometry width="750" height="780" as="geometry"/>
                </mxCell>
                <mxCell id="gxBDuYYF857rBJJsu3Cr-6" value="&lt;br&gt;KECCAK PERMUTATION (S, b(=1600), nr(=24))&lt;br&gt;&lt;br&gt;&lt;br&gt;&lt;br&gt;&lt;br&gt;&lt;br&gt;&lt;br&gt;&lt;br&gt;&lt;br&gt;&lt;br&gt;&lt;br&gt;&lt;br&gt;&lt;br&gt;&lt;br&gt;&lt;br&gt;&lt;br&gt;&lt;br&gt;&lt;br&gt;&lt;br&gt;&lt;br&gt;&lt;br&gt;&lt;br&gt;&lt;br&gt;&lt;br&gt;&lt;br&gt;&lt;br&gt;&lt;br&gt;&lt;br&gt;&lt;br&gt;&lt;br&gt;&lt;br&gt;" style="rounded=0;whiteSpace=wrap;html=1;" parent="gxBDuYYF857rBJJsu3Cr-58" vertex="1">
                    <mxGeometry x="115" y="163" width="520" height="472" as="geometry"/>
                </mxCell>
                <mxCell id="gxBDuYYF857rBJJsu3Cr-8" value="State to Array conversion" style="rounded=0;whiteSpace=wrap;html=1;" parent="gxBDuYYF857rBJJsu3Cr-58" vertex="1">
                    <mxGeometry x="240" y="205" width="270" height="40" as="geometry"/>
                </mxCell>
                <mxCell id="gxBDuYYF857rBJJsu3Cr-9" value="ir==12+2l-1&lt;br&gt;(starts with 12+2l-nr)" style="rhombus;whiteSpace=wrap;html=1;" parent="gxBDuYYF857rBJJsu3Cr-58" vertex="1">
                    <mxGeometry x="302.5" y="390" width="145" height="130" as="geometry"/>
                </mxCell>
                <mxCell id="gxBDuYYF857rBJJsu3Cr-14" style="edgeStyle=orthogonalEdgeStyle;rounded=0;orthogonalLoop=1;jettySize=auto;html=1;exitX=0.5;exitY=1;exitDx=0;exitDy=0;entryX=0.5;entryY=0;entryDx=0;entryDy=0;" parent="gxBDuYYF857rBJJsu3Cr-58" source="gxBDuYYF857rBJJsu3Cr-10" target="gxBDuYYF857rBJJsu3Cr-9" edge="1">
                    <mxGeometry relative="1" as="geometry"/>
                </mxCell>
                <mxCell id="gxBDuYYF857rBJJsu3Cr-10" value="Round function(A, ir)" style="rounded=1;whiteSpace=wrap;html=1;" parent="gxBDuYYF857rBJJsu3Cr-58" vertex="1">
                    <mxGeometry x="295" y="319.5" width="160" height="52" as="geometry"/>
                </mxCell>
                <mxCell id="gxBDuYYF857rBJJsu3Cr-17" value="No" style="text;html=1;strokeColor=none;fillColor=none;align=center;verticalAlign=middle;whiteSpace=wrap;rounded=0;" parent="gxBDuYYF857rBJJsu3Cr-58" vertex="1">
                    <mxGeometry x="430" y="424.79998779296875" width="40" height="20" as="geometry"/>
                </mxCell>
                <mxCell id="gxBDuYYF857rBJJsu3Cr-20" style="edgeStyle=orthogonalEdgeStyle;rounded=0;orthogonalLoop=1;jettySize=auto;html=1;exitX=0.5;exitY=1;exitDx=0;exitDy=0;entryX=0.5;entryY=0;entryDx=0;entryDy=0;" parent="gxBDuYYF857rBJJsu3Cr-58" source="gxBDuYYF857rBJJsu3Cr-18" target="gxBDuYYF857rBJJsu3Cr-10" edge="1">
                    <mxGeometry relative="1" as="geometry"/>
                </mxCell>
                <mxCell id="gxBDuYYF857rBJJsu3Cr-42" style="edgeStyle=orthogonalEdgeStyle;rounded=0;orthogonalLoop=1;jettySize=auto;html=1;exitX=0.5;exitY=0;exitDx=0;exitDy=0;" parent="gxBDuYYF857rBJJsu3Cr-58" source="gxBDuYYF857rBJJsu3Cr-18" edge="1">
                    <mxGeometry relative="1" as="geometry">
                        <mxPoint x="374.8823529411766" y="285.2352941176471" as="targetPoint"/>
                    </mxGeometry>
                </mxCell>
                <mxCell id="gxBDuYYF857rBJJsu3Cr-18" value="reg_data" style="rounded=0;whiteSpace=wrap;html=1;" parent="gxBDuYYF857rBJJsu3Cr-58" vertex="1">
                    <mxGeometry x="335" y="270" width="80" height="25" as="geometry"/>
                </mxCell>
                <mxCell id="gxBDuYYF857rBJJsu3Cr-19" style="edgeStyle=orthogonalEdgeStyle;rounded=0;orthogonalLoop=1;jettySize=auto;html=1;exitX=0.5;exitY=1;exitDx=0;exitDy=0;entryX=0.5;entryY=0;entryDx=0;entryDy=0;" parent="gxBDuYYF857rBJJsu3Cr-58" source="gxBDuYYF857rBJJsu3Cr-8" target="gxBDuYYF857rBJJsu3Cr-18" edge="1">
                    <mxGeometry relative="1" as="geometry"/>
                </mxCell>
                <mxCell id="gxBDuYYF857rBJJsu3Cr-40" style="edgeStyle=orthogonalEdgeStyle;rounded=0;orthogonalLoop=1;jettySize=auto;html=1;exitX=1;exitY=0.5;exitDx=0;exitDy=0;entryX=1;entryY=0.5;entryDx=0;entryDy=0;" parent="gxBDuYYF857rBJJsu3Cr-58" source="gxBDuYYF857rBJJsu3Cr-9" target="gxBDuYYF857rBJJsu3Cr-18" edge="1">
                    <mxGeometry relative="1" as="geometry"/>
                </mxCell>
                <mxCell id="gxBDuYYF857rBJJsu3Cr-21" value="reg_data" style="rounded=0;whiteSpace=wrap;html=1;" parent="gxBDuYYF857rBJJsu3Cr-58" vertex="1">
                    <mxGeometry x="335" y="545" width="80" height="25" as="geometry"/>
                </mxCell>
                <mxCell id="gxBDuYYF857rBJJsu3Cr-22" style="edgeStyle=orthogonalEdgeStyle;rounded=0;orthogonalLoop=1;jettySize=auto;html=1;exitX=0.5;exitY=1;exitDx=0;exitDy=0;entryX=0.5;entryY=0;entryDx=0;entryDy=0;" parent="gxBDuYYF857rBJJsu3Cr-58" source="gxBDuYYF857rBJJsu3Cr-9" target="gxBDuYYF857rBJJsu3Cr-21" edge="1">
                    <mxGeometry relative="1" as="geometry"/>
                </mxCell>
                <mxCell id="gxBDuYYF857rBJJsu3Cr-43" style="edgeStyle=orthogonalEdgeStyle;rounded=0;orthogonalLoop=1;jettySize=auto;html=1;exitX=0.5;exitY=0;exitDx=0;exitDy=0;" parent="gxBDuYYF857rBJJsu3Cr-58" source="gxBDuYYF857rBJJsu3Cr-24" edge="1">
                    <mxGeometry relative="1" as="geometry">
                        <mxPoint x="374.8823529411766" y="594.6470588235295" as="targetPoint"/>
                    </mxGeometry>
                </mxCell>
                <mxCell id="gxBDuYYF857rBJJsu3Cr-24" value="Convert back to a string" style="rounded=0;whiteSpace=wrap;html=1;" parent="gxBDuYYF857rBJJsu3Cr-58" vertex="1">
                    <mxGeometry x="300" y="595.5" width="150" height="19" as="geometry"/>
                </mxCell>
                <mxCell id="gxBDuYYF857rBJJsu3Cr-25" style="edgeStyle=orthogonalEdgeStyle;rounded=0;orthogonalLoop=1;jettySize=auto;html=1;entryX=0.5;entryY=0;entryDx=0;entryDy=0;" parent="gxBDuYYF857rBJJsu3Cr-58" source="gxBDuYYF857rBJJsu3Cr-21" target="gxBDuYYF857rBJJsu3Cr-24" edge="1">
                    <mxGeometry relative="1" as="geometry"/>
                </mxCell>
                <mxCell id="gxBDuYYF857rBJJsu3Cr-41" value="Padding" style="rounded=1;whiteSpace=wrap;html=1;" parent="gxBDuYYF857rBJJsu3Cr-58" vertex="1">
                    <mxGeometry x="315" y="64.79998779296875" width="120" height="60" as="geometry"/>
                </mxCell>
                <mxCell id="gxBDuYYF857rBJJsu3Cr-44" value="Yes" style="text;html=1;strokeColor=none;fillColor=none;align=center;verticalAlign=middle;whiteSpace=wrap;rounded=0;" parent="gxBDuYYF857rBJJsu3Cr-58" vertex="1">
                    <mxGeometry x="377.5" y="518" width="40" height="20" as="geometry"/>
                </mxCell>
                <mxCell id="gxBDuYYF857rBJJsu3Cr-51" value="" style="shape=flexArrow;endArrow=classic;html=1;exitX=0.5;exitY=1;exitDx=0;exitDy=0;" parent="gxBDuYYF857rBJJsu3Cr-58" source="gxBDuYYF857rBJJsu3Cr-41" edge="1">
                    <mxGeometry width="50" height="50" relative="1" as="geometry">
                        <mxPoint x="375" y="135" as="sourcePoint"/>
                        <mxPoint x="375" y="163" as="targetPoint"/>
                    </mxGeometry>
                </mxCell>
                <mxCell id="gxBDuYYF857rBJJsu3Cr-53" value="SQUEEZE" style="rounded=0;whiteSpace=wrap;html=1;" parent="gxBDuYYF857rBJJsu3Cr-58" vertex="1">
                    <mxGeometry x="315" y="685" width="120" height="60" as="geometry"/>
                </mxCell>
                <mxCell id="gxBDuYYF857rBJJsu3Cr-54" value="" style="shape=flexArrow;endArrow=classic;html=1;exitX=0.5;exitY=1;exitDx=0;exitDy=0;entryX=0.5;entryY=0;entryDx=0;entryDy=0;" parent="gxBDuYYF857rBJJsu3Cr-58" source="gxBDuYYF857rBJJsu3Cr-6" target="gxBDuYYF857rBJJsu3Cr-53" edge="1">
                    <mxGeometry width="50" height="50" relative="1" as="geometry">
                        <mxPoint x="372.5" y="675" as="sourcePoint"/>
                        <mxPoint x="422.5" y="625" as="targetPoint"/>
                    </mxGeometry>
                </mxCell>
                <mxCell id="gxBDuYYF857rBJJsu3Cr-59" value="Padding (??)" style="rounded=1;whiteSpace=wrap;html=1;" parent="1" vertex="1">
                    <mxGeometry x="985" y="620" width="210" height="170" as="geometry"/>
                </mxCell>
            </root>
        </mxGraphModel>
    </diagram>
</mxfile>